<svg width="1280" height="720" xmlns="http://www.w3.org/2000/svg" xmlns:xlink="http://www.w3.org/1999/xlink" overflow="hidden"><g><rect x="0" y="0" width="1280" height="720" fill="#FFFFFF"/><g><g><g><path d="M413.148 121.04 281.701 106.435 121.043 121.04 106.435 267.094 121.04 413.148 267.094 431.404 413.148 413.148 427.752 263.445 413.148 121.04Z" fill="#FFFFFF" transform="matrix(1 0 0 1.0018 78.4062 92.425)"/><path d="M180.961 347.641C170.044 340.265 162.485 329.495 158.358 315.254L183.699 304.812C186 313.575 190.015 320.365 195.749 325.186 201.446 330.006 208.383 332.378 216.489 332.378 224.778 332.378 231.898 329.859 237.848 324.819 243.798 319.78 246.795 313.353 246.795 305.577 246.795 297.619 243.653 291.117 237.374 286.08 231.094 281.044 223.207 278.521 213.786 278.521L199.145 278.521 199.145 253.438 212.288 253.438C220.393 253.438 227.223 251.249 232.773 246.867 238.323 242.485 241.098 236.497 241.098 228.865 241.098 222.075 238.614 216.669 233.649 212.618 228.685 208.566 222.402 206.521 214.771 206.521 207.323 206.521 201.407 208.494 197.025 212.473 192.643 216.453 189.466 221.345 187.46 227.114L162.376 216.672C165.698 207.251 171.797 198.926 180.741 191.733 189.688 184.54 201.115 180.924 214.99 180.924 225.25 180.924 234.488 182.897 242.668 186.877 250.846 190.856 257.273 196.37 261.91 203.38 266.547 210.425 268.848 218.315 268.848 227.075 268.848 236.022 266.694 243.578 262.385 249.786 258.075 255.994 252.78 260.739 246.5 264.063L246.5 265.559C254.789 269.028 261.544 274.323 266.875 281.443 272.169 288.564 274.833 297.072 274.833 307.004 274.833 316.936 272.314 325.807 267.274 333.586 262.235 341.364 255.261 347.497 246.426 351.951 237.554 356.404 227.586 358.669 216.522 358.669 203.707 358.705 191.877 355.017 180.961 347.641Z" fill="#1A73E8" transform="matrix(1 0 0 1.0018 78.4062 92.425)"/><path d="M336.469 221.892 308.791 242.011 294.88 220.907 344.794 184.904 363.927 184.904 363.927 354.725 336.469 354.725 336.469 221.892Z" fill="#1A73E8" transform="matrix(1 0 0 1.0018 78.4062 92.425)"/><path d="M413.148 544.594 544.594 413.148 478.871 383.938 413.148 413.148 383.938 478.871 413.148 544.594Z" fill="#EA4335" transform="matrix(1 0 0 1.0018 78.4062 92.425)"/><path d="M91.8303 478.871 121.04 544.594 413.145 544.594 413.145 413.148 121.04 413.148 91.8303 478.871Z" fill="#34A853" transform="matrix(1 0 0 1.0018 78.4062 92.425)"/><path d="M33.4082-10.4062C9.2019-10.4062-10.4062 9.2019-10.4062 33.4082L-10.4062 413.145 55.3169 442.354 121.04 413.145 121.04 121.04 413.145 121.04 442.354 55.3169 413.148-10.4062 33.4082-10.4062Z" fill="#4285F4" transform="matrix(1 0 0 1.0018 78.4062 92.425)"/><path d="M-10.4062 413.148-10.4062 500.779C-10.4062 524.988 9.2019 544.594 33.4082 544.594L121.04 544.594 121.04 413.148-10.4062 413.148Z" fill="#188038" transform="matrix(1 0 0 1.0018 78.4062 92.425)"/><path d="M413.148 121.04 413.148 413.145 544.594 413.145 544.594 121.04 478.871 91.8303 413.148 121.04Z" fill="#FBBC04" transform="matrix(1 0 0 1.0018 78.4062 92.425)"/><path d="M544.594 121.04 544.594 33.4082C544.594 9.19913 524.986-10.4062 500.779-10.4062L413.148-10.4062 413.148 121.04 544.594 121.04Z" fill="#1967D2" transform="matrix(1 0 0 1.0018 78.4062 92.425)"/></g></g></g><g><g><g><path d="M471.75 0C517.728-1.54043e-14 555 37.2723 555 83.25L555 471.75C555 517.728 517.728 555 471.75 555L83.25 555C37.2723 555 1.15782e-05 517.728 1.15782e-05 471.75L1.15782e-05 83.25C1.15782e-05 37.2723 37.2723 1.15782e-05 83.25 1.15782e-05Z" fill="#FFFFFF" transform="matrix(1 0 0 1.0018 657 82)"/><path d="M418.418 148.506C392.402 136.582 364.761 127.91 335.71 122.815 335.168 122.815 334.626 122.815 334.409 123.466 330.832 129.861 326.821 138.1 324.111 144.604 292.676 139.942 261.782 139.942 231.214 144.604 228.396 137.883 224.385 129.753 220.374 123.466 220.049 123.032 219.615 122.707 219.073 122.815 194.142 127.802 162.272 136.907 136.69 148.506 136.474 148.506 136.257 148.723 136.148 148.939 83.0332 228.07 68.9414 303.949 76.5293 379.828 76.5293 380.153 76.7461 380.587 77.0713 380.912 111.759 406.494 145.362 422.104 178.532 432.185 179.074 432.185 179.616 432.185 179.941 431.751 187.746 421.128 194.684 409.854 200.754 397.931 201.079 397.28 200.754 396.413 199.995 396.196 189.155 391.86 178.315 386.874 168.234 381.021 167.476 380.587 167.367 379.395 168.234 378.853 170.402 377.227 172.57 375.601 174.521 373.975 174.847 373.649 175.389 373.649 175.822 373.758 242.379 404.109 314.572 404.109 379.611 373.758 380.045 373.541 380.587 373.649 380.912 373.866 382.972 375.601 385.031 377.227 387.199 378.853 387.958 379.395 387.85 380.587 387.199 381.021 377.118 386.982 366.604 391.86 355.438 396.196 354.68 396.521 354.354 397.28 354.788 398.039 360.858 409.963 367.904 421.128 375.384 431.643 375.709 432.076 376.251 432.293 376.793 432.076 409.963 421.778 443.675 406.277 478.471 380.804 478.796 380.587 479.013 380.262 479.013 379.72 487.468 292.025 464.812 216.038 418.96 148.831 418.96 148.614 418.635 148.397 418.418 148.397ZM210.293 333.867C189.697 333.867 173.438 315.439 173.438 292.676 173.438 269.912 189.697 251.484 210.293 251.484 230.889 251.484 247.148 269.912 247.148 292.676 247.148 315.439 230.889 333.867 210.293 333.867ZM345.791 333.867C325.195 333.867 308.936 315.439 308.936 292.676 308.936 269.912 325.195 251.484 345.791 251.484 366.387 251.484 382.646 269.912 382.646 292.676 382.646 315.439 366.387 333.867 345.791 333.867Z" fill="#5865F2" transform="matrix(1 0 0 1.0018 657 82)"/></g></g></g><text font-family="HGSoeiKakugothicUB,HGSoeiKakugothicUB_MSFontService,sans-serif" font-weight="400" font-size="117" transform="translate(601.6 410)">＆</text></g></svg>